# xmcd
#
# Track frame offsets:
#	150
#	14959
#	30047
#	41923
#	57665
#	70900
#	90209
#	107881
#	129436
#	151420
#
# Disc length: 2185 seconds
#
# Revision: 1
# Processed by: cddbd v1.5.2PL0 Copyright (c) Steve Scherf et al.
# Submitted via: audiograbber 1.83.01
#
DISCID=8108870a
DTITLE=New Day - Run For The Prize
DYEAR=1900
DGENRE=Southern Gospel
TTITLE0=Praise The Lord
TTITLE1=Livin' With The Light On
TTITLE2=Feel The Joy
TTITLE3=If That Don't Make You Want To Go
TTITLE4=I Might Go Home Today
TTITLE5=Halfway
TTITLE6='Til The Storm Passes By
TTITLE7=How Great Thou Art
TTITLE8=Yahweh
TTITLE9=I Keep Looking Up
EXTD=
EXTT0=
EXTT1=
EXTT2=
EXTT3=
EXTT4=
EXTT5=
EXTT6=
EXTT7=
EXTT8=
EXTT9=
PLAYORDER=
